<svg width="32" height="32" viewBox="0 0 32 32" fill="none" xmlns="http://www.w3.org/2000/svg">
<g clip-path="url(#clip0_436_250)">
<path d="M23.4838 20.688C25.4204 18.0454 26.2878 14.769 25.9125 11.5143C25.5371 8.25963 23.9467 5.2667 21.4594 3.13428C18.9721 1.00186 15.7713 -0.112775 12.4975 0.0133713C9.22369 0.139518 6.11821 1.49714 3.80238 3.81463C1.48655 6.13212 0.131144 9.23857 0.00733994 12.5125C-0.116464 15.7864 1.00046 18.9863 3.13466 21.4721C5.26886 23.9579 8.26293 25.5462 11.5179 25.9192C14.7728 26.2922 18.0486 25.4225 20.6898 23.484H20.6878C20.7478 23.564 20.8118 23.64 20.8838 23.714L28.5838 31.414C28.9589 31.7893 29.4676 32.0002 29.9981 32.0004C30.5287 32.0006 31.0376 31.79 31.4128 31.415C31.7881 31.04 31.9991 30.5313 31.9992 30.0007C31.9994 29.4702 31.7889 28.9613 31.4138 28.586L23.7138 20.886C23.6423 20.8136 23.5654 20.7488 23.4838 20.688ZM23.9998 13C23.9998 14.4446 23.7153 15.875 23.1625 17.2095C22.6097 18.5441 21.7995 19.7567 20.778 20.7782C19.7566 21.7996 18.5439 22.6099 17.2094 23.1627C15.8748 23.7155 14.4444 24 12.9998 24C11.5553 24 10.1249 23.7155 8.79033 23.1627C7.45574 22.6099 6.24311 21.7996 5.22167 20.7782C4.20022 19.7567 3.38997 18.5441 2.83717 17.2095C2.28437 15.875 1.99984 14.4446 1.99984 13C1.99984 10.0826 3.15877 7.28474 5.22167 5.22184C7.28457 3.15894 10.0825 2.00002 12.9998 2.00002C15.9172 2.00002 18.7151 3.15894 20.778 5.22184C22.8409 7.28474 23.9998 10.0826 23.9998 13Z" fill="white"/>
</g>
<defs>
<clipPath id="clip0_436_250">
<rect width="32" height="32" fill="white"/>
</clipPath>
</defs>
</svg>
