<svg width="107" height="147" viewBox="0 0 107 147" fill="none" xmlns="http://www.w3.org/2000/svg">
<g clip-path="url(#clip0_351_1504)">
<path d="M53.498 7.08591V99.9137C79.1318 99.9137 99.9119 79.1335 99.9119 53.4998C99.9119 27.8661 79.1318 7.08591 53.498 7.08591Z" fill="#0066FF"/>
<path d="M94.3085 53.5C94.3085 27.8662 76.0369 7.08606 53.4979 7.08606C27.8642 7.08606 7.08398 27.8662 7.08398 53.5C7.08398 79.1337 27.8642 99.9139 53.4979 99.9139C76.0369 99.9139 94.3085 79.1337 94.3085 53.5Z" fill="#4C94FF"/>
<path d="M77.4941 48.6455C77.4941 48.6436 45.7046 30.2899 45.7046 30.2899C44.7365 29.7329 43.6249 29.4761 42.5107 29.5519L42.5098 77.4473C43.6239 77.5232 44.7354 77.266 45.7029 76.7084L77.4941 58.3538C79.1708 57.3853 80.2998 55.5749 80.2998 53.4996C80.2998 51.4244 79.1708 49.6139 77.4941 48.6455Z" fill="#B3D1FF"/>
<path d="M72.2558 58.354C73.714 57.3855 74.696 55.5751 74.696 53.4998C74.696 51.4246 73.714 49.6141 72.2558 48.6457C72.2558 48.6438 44.6081 30.2901 44.6081 30.2901C43.9657 29.8646 43.2468 29.6128 42.51 29.5521C41.6595 29.6096 40.8335 29.8615 40.0955 30.2884C38.2982 31.3261 37.295 33.2092 37.2947 35.1453C37.293 35.1463 37.293 71.8538 37.293 71.8538C37.295 73.7908 38.2982 75.6739 40.0955 76.7116C40.8332 77.1383 41.6589 77.3902 42.5091 77.4477C43.2459 77.387 43.9646 77.1349 44.6066 76.7088L72.2558 58.354Z" fill="white"/>
</g>
<path d="M35.6713 132H31.3856L31.054 123.99C31.003 122.408 30.9435 121.209 30.8754 120.393H30.7989C30.5948 121.039 30.3567 122.043 30.0846 123.403L29.9571 124.041L28.1969 132H23.9112L22.4316 124.832L22.1765 123.556C21.8194 121.975 21.5728 120.92 21.4368 120.393H21.3602C21.2922 121.243 21.2327 122.629 21.1817 124.551C21.1646 124.67 21.1561 124.857 21.1561 125.112L20.9266 132H16.6154L17.2276 117.459H24.5235L25.7734 123.735L26.0796 125.418C26.2156 124.891 26.3432 124.305 26.4622 123.658L27.6357 117.459H35.0846L35.6713 132ZM49.5365 120.265L46.4754 130.087C45.8801 131.974 45.3444 133.344 44.8682 134.194C44.392 135.061 43.9159 135.665 43.4397 136.005C43.1676 136.192 42.7339 136.337 42.1387 136.439C41.5604 136.541 40.9312 136.592 40.2509 136.592C39.2305 136.592 38.4142 136.498 37.802 136.311C37.785 135.903 37.802 135.401 37.853 134.806C37.904 134.228 37.972 133.735 38.0571 133.327C38.7714 133.361 39.4686 133.378 40.1489 133.378C40.6591 133.378 41.0417 133.369 41.2968 133.352C41.5519 132.859 41.79 132.34 42.0111 131.796L40.2509 131.694L36.3224 120.265H40.9397L42.9805 128.48L43.006 128.964H43.0825L44.9192 120.265H49.5365ZM59.1952 117.459H64.0421L60.1136 132H53.4555L49.5015 117.459H54.3739L56.7208 128.837H56.8483L59.1952 117.459ZM70.7592 132.332C68.7184 132.332 67.1878 131.855 66.1674 130.903C65.164 129.934 64.6623 128.412 64.6623 126.337C64.6623 125.197 64.7644 124.202 64.9685 123.352C65.1895 122.485 65.4531 121.881 65.7593 121.541C66.1504 121.099 66.8647 120.733 67.9021 120.444C68.9565 120.155 69.9429 120.01 70.8613 120.01C73.0551 120.01 74.6197 120.478 75.5551 121.413C76.4904 122.349 76.9581 123.845 76.9581 125.903C76.9581 128.114 76.4564 129.738 75.453 130.776C74.4497 131.813 72.885 132.332 70.7592 132.332ZM70.8357 129.347C71.499 129.347 71.9327 129.117 72.1368 128.658C72.3408 128.182 72.4429 127.349 72.4429 126.158C72.4429 125.325 72.4004 124.687 72.3153 124.245C72.2303 123.786 72.0687 123.454 71.8306 123.25C71.6095 123.029 71.2609 122.918 70.7847 122.918C70.1045 122.918 69.7133 122.978 69.6113 123.097C69.4752 123.216 69.3647 123.59 69.2796 124.219C69.1946 124.849 69.1521 125.503 69.1521 126.184C69.1521 127.34 69.2626 128.157 69.4837 128.633C69.7218 129.109 70.1725 129.347 70.8357 129.347ZM90.3068 116.515V132H86.7099L86.3528 130.036C86.0126 130.699 85.5109 131.226 84.8477 131.617C84.1844 132.009 83.4361 132.204 82.6028 132.204C81.2763 132.204 80.2134 131.728 79.4141 130.776C78.6318 129.823 78.2406 128.395 78.2406 126.49C78.2406 125.044 78.4107 123.854 78.7508 122.918C79.0909 121.983 79.4906 121.311 79.9498 120.903C80.2389 120.648 80.8256 120.435 81.71 120.265C82.6113 120.095 83.4106 120.01 84.1079 120.01C84.7201 120.01 85.3494 120.07 85.9956 120.189C85.9446 119.373 85.9191 118.922 85.9191 118.837V116.694L90.3068 116.515ZM84.516 128.786C84.9752 128.786 85.4514 128.709 85.9446 128.556V123.021C85.4514 122.952 84.9072 122.918 84.312 122.918C83.8018 122.918 83.4786 122.961 83.3426 123.046C83.1555 123.182 83.0025 123.573 82.8834 124.219C82.7814 124.849 82.7304 125.512 82.7304 126.209C82.7304 127.247 82.8834 127.935 83.1895 128.276C83.5127 128.616 83.9548 128.786 84.516 128.786Z" fill="white"/>
<defs>
<clipPath id="clip0_351_1504">
<rect width="92.8278" height="92.8278" fill="white" transform="translate(7.08594 7.08609)"/>
</clipPath>
</defs>
</svg>
